999
"DXF R12 Output" (www.mydxf.blogspot.com)
 0 
SECTION
 2 
HEADER
 9 
$ACADVER
 1 
AC1009
 9 
$EXTMIN
 10 
 0 
 20 
 0 
 9 
$EXTMAX
 10 
 8.5 
 20 
 11 
 0 
ENDSEC
 0 
SECTION
 2 
ENTITIES
0
LINE
8
Layer 1
10
0.793749
20
1060.793749
11
-0.793749
21
1059.206251
0
LINE
8
Layer 1
10
0.000000
20
1061.322915
11
0.000000
21
1058.677085
0
LINE
8
Layer 1
10
2.116664
20
1058.941668
11
1.058332
21
1057.883336
0
LINE
8
Layer 1
10
1.587498
20
1059.470834
11
0.529166
21
1058.412502
0
LINE
8
Layer 1
10
1.058332
20
1060.000000
11
0.000000
21
1058.941668
0
LINE
8
0
10
1055.312499
20
529.265023
11
1055.020492
21
546.805433
0
LINE
8
0
10
1055.020492
20
546.805433
11
1054.149071
21
564.250406
0
LINE
8
0
10
1054.149071
20
564.250406
11
1052.705140
21
581.587987
0
LINE
8
0
10
1052.705140
20
581.587987
11
1050.695601
21
598.806223
0
LINE
8
0
10
1050.695601
20
598.806223
11
1048.127354
21
615.893158
0
LINE
8
0
10
1048.127354
20
615.893158
11
1045.007303
21
632.836839
0
LINE
8
0
10
1045.007303
20
632.836839
11
1041.342348
21
649.625311
0
LINE
8
0
10
1041.342348
20
649.625311
11
1037.139392
21
666.246620
0
LINE
8
0
10
1037.139392
20
666.246620
11
1032.405336
21
682.688812
0
LINE
8
0
10
1032.405336
20
682.688812
11
1027.147083
21
698.939931
0
LINE
8
0
10
1027.147083
20
698.939931
11
1021.371534
21
714.988025
0
LINE
8
0
10
1021.371534
20
714.988025
11
1015.085590
21
730.821137
0
LINE
8
0
10
1015.085590
20
730.821137
11
1008.296155
21
746.427315
0
LINE
8
0
10
1008.296155
20
746.427315
11
1001.010129
21
761.794604
0
LINE
8
0
10
1001.010129
20
761.794604
11
993.234415
21
776.911049
0
LINE
8
0
10
993.234415
20
776.911049
11
984.975914
21
791.764696
0
LINE
8
0
10
984.975914
20
791.764696
11
976.241528
21
806.343591
0
LINE
8
0
10
976.241528
20
806.343591
11
967.038160
21
820.635780
0
LINE
8
0
10
967.038160
20
820.635780
11
957.372710
21
834.629307
0
LINE
8
0
10
957.372710
20
834.629307
11
947.252080
21
848.312219
0
LINE
8
0
10
947.252080
20
848.312219
11
936.683174
21
861.672562
0
LINE
8
0
10
936.683174
20
861.672562
11
925.672892
21
874.698380
0
LINE
8
0
10
925.672892
20
874.698380
11
914.228136
21
887.377721
0
LINE
8
0
10
914.228136
20
887.377721
11
902.355808
21
899.698628
0
LINE
8
0
10
902.355808
20
899.698628
11
890.062810
21
911.649149
0
LINE
8
0
10
890.062810
20
911.649149
11
877.356043
21
923.217328
0
LINE
8
0
10
877.356043
20
923.217328
11
864.242410
21
934.391212
0
LINE
8
0
10
864.242410
20
934.391212
11
850.728813
21
945.158846
0
LINE
8
0
10
850.728813
20
945.158846
11
836.822153
21
955.508275
0
LINE
8
0
10
836.822153
20
955.508275
11
822.529332
21
965.427546
0
LINE
8
0
10
822.529332
20
965.427546
11
807.857252
21
974.904704
0
LINE
8
0
10
807.857252
20
974.904704
11
792.812815
21
983.927794
0
LINE
8
0
10
792.812815
20
983.927794
11
777.476370
21
992.445114
0
LINE
8
0
10
777.476370
20
992.445114
11
761.932871
21
1000.412929
0
LINE
8
0
10
761.932871
20
1000.412929
11
746.196120
21
1007.831240
0
LINE
8
0
10
746.196120
20
1007.831240
11
730.279921
21
1014.700046
0
LINE
8
0
10
730.279921
20
1014.700046
11
714.198078
21
1021.019348
0
LINE
8
0
10
714.198078
20
1021.019348
11
697.964395
21
1026.789145
0
LINE
8
0
10
697.964395
20
1026.789145
11
681.592674
21
1032.009438
0
LINE
8
0
10
681.592674
20
1032.009438
11
665.096721
21
1036.680226
0
LINE
8
0
10
665.096721
20
1036.680226
11
648.490338
21
1040.801510
0
LINE
8
0
10
648.490338
20
1040.801510
11
631.787329
21
1044.373289
0
LINE
8
0
10
631.787329
20
1044.373289
11
615.001498
21
1047.395564
0
LINE
8
0
10
615.001498
20
1047.395564
11
598.146649
21
1049.868334
0
LINE
8
0
10
598.146649
20
1049.868334
11
581.236585
21
1051.791599
0
LINE
8
0
10
581.236585
20
1051.791599
11
564.285110
21
1053.165361
0
LINE
8
0
10
564.285110
20
1053.165361
11
547.306027
21
1053.989617
0
LINE
8
0
10
547.306027
20
1053.989617
11
530.313141
21
1054.264370
0
LINE
8
0
10
530.313141
20
1054.264370
11
513.320255
21
1053.989617
0
LINE
8
0
10
513.320255
20
1053.989617
11
496.341173
21
1053.165361
0
LINE
8
0
10
496.341173
20
1053.165361
11
479.389698
21
1051.791599
0
LINE
8
0
10
479.389698
20
1051.791599
11
462.479633
21
1049.868334
0
LINE
8
0
10
462.479633
20
1049.868334
11
445.624784
21
1047.395564
0
LINE
8
0
10
445.624784
20
1047.395564
11
428.838953
21
1044.373289
0
LINE
8
0
10
428.838953
20
1044.373289
11
412.135945
21
1040.801510
0
LINE
8
0
10
412.135945
20
1040.801510
11
395.529562
21
1036.680226
0
LINE
8
0
10
395.529562
20
1036.680226
11
379.033608
21
1032.009438
0
LINE
8
0
10
379.033608
20
1032.009438
11
362.661888
21
1026.789145
0
LINE
8
0
10
362.661888
20
1026.789145
11
346.428204
21
1021.019348
0
LINE
8
0
10
346.428204
20
1021.019348
11
330.346361
21
1014.700046
0
LINE
8
0
10
330.346361
20
1014.700046
11
314.430162
21
1007.831240
0
LINE
8
0
10
314.430162
20
1007.831240
11
298.693411
21
1000.412929
0
LINE
8
0
10
298.693411
20
1000.412929
11
283.149912
21
992.445114
0
LINE
8
0
10
283.149912
20
992.445114
11
267.813468
21
983.927794
0
LINE
8
0
10
267.813468
20
983.927794
11
252.769030
21
974.904704
0
LINE
8
0
10
252.769030
20
974.904704
11
238.096950
21
965.427546
0
LINE
8
0
10
238.096950
20
965.427546
11
223.804129
21
955.508275
0
LINE
8
0
10
223.804129
20
955.508275
11
209.897469
21
945.158846
0
LINE
8
0
10
209.897469
20
945.158846
11
196.383872
21
934.391212
0
LINE
8
0
10
196.383872
20
934.391212
11
183.270239
21
923.217328
0
LINE
8
0
10
183.270239
20
923.217328
11
170.563473
21
911.649149
0
LINE
8
0
10
170.563473
20
911.649149
11
158.270475
21
899.698628
0
LINE
8
0
10
158.270475
20
899.698628
11
146.398147
21
887.377721
0
LINE
8
0
10
146.398147
20
887.377721
11
134.953391
21
874.698380
0
LINE
8
0
10
134.953391
20
874.698380
11
123.943109
21
861.672562
0
LINE
8
0
10
123.943109
20
861.672562
11
113.374202
21
848.312219
0
LINE
8
0
10
113.374202
20
848.312219
11
103.253573
21
834.629307
0
LINE
8
0
10
103.253573
20
834.629307
11
93.588124
21
820.635780
0
LINE
8
0
10
93.588124
20
820.635780
11
84.384755
21
806.343591
0
LINE
8
0
10
84.384755
20
806.343591
11
75.650370
21
791.764696
0
LINE
8
0
10
75.650370
20
791.764696
11
67.391869
21
776.911049
0
LINE
8
0
10
67.391869
20
776.911049
11
59.616155
21
761.794604
0
LINE
8
0
10
59.616155
20
761.794604
11
52.330130
21
746.427315
0
LINE
8
0
10
52.330130
20
746.427315
11
45.540695
21
730.821137
0
LINE
8
0
10
45.540695
20
730.821137
11
39.254752
21
714.988025
0
LINE
8
0
10
39.254752
20
714.988025
11
33.479203
21
698.939931
0
LINE
8
0
10
33.479203
20
698.939931
11
28.220950
21
682.688812
0
LINE
8
0
10
28.220950
20
682.688812
11
23.486895
21
666.246620
0
LINE
8
0
10
23.486895
20
666.246620
11
19.283940
21
649.625311
0
LINE
8
0
10
19.283940
20
649.625311
11
15.618986
21
632.836839
0
LINE
8
0
10
15.618986
20
632.836839
11
12.498935
21
615.893158
0
LINE
8
0
10
12.498935
20
615.893158
11
9.930689
21
598.806223
0
LINE
8
0
10
9.930689
20
598.806223
11
7.921150
21
581.587987
0
LINE
8
0
10
7.921150
20
581.587987
11
6.477220
21
564.250406
0
LINE
8
0
10
6.477220
20
564.250406
11
5.605801
21
546.805433
0
LINE
8
0
10
5.605801
20
546.805433
11
5.313794
21
529.265023
0
LINE
8
0
10
5.313794
20
529.265023
11
5.605802
21
511.724613
0
LINE
8
0
10
5.605802
20
511.724613
11
6.477221
21
494.279640
0
LINE
8
0
10
6.477221
20
494.279640
11
7.921152
21
476.942058
0
LINE
8
0
10
7.921152
20
476.942058
11
9.930691
21
459.723823
0
LINE
8
0
10
9.930691
20
459.723823
11
12.498937
21
442.636887
0
LINE
8
0
10
12.498937
20
442.636887
11
15.618988
21
425.693206
0
LINE
8
0
10
15.618988
20
425.693206
11
19.283943
21
408.904734
0
LINE
8
0
10
19.283943
20
408.904734
11
23.486899
21
392.283425
0
LINE
8
0
10
23.486899
20
392.283425
11
28.220954
21
375.841234
0
LINE
8
0
10
28.220954
20
375.841234
11
33.479207
21
359.590114
0
LINE
8
0
10
33.479207
20
359.590114
11
39.254756
21
343.542021
0
LINE
8
0
10
39.254756
20
343.542021
11
45.540699
21
327.708908
0
LINE
8
0
10
45.540699
20
327.708908
11
52.330134
21
312.102730
0
LINE
8
0
10
52.330134
20
312.102730
11
59.616160
21
296.735442
0
LINE
8
0
10
59.616160
20
296.735442
11
67.391874
21
281.618997
0
LINE
8
0
10
67.391874
20
281.618997
11
75.650375
21
266.765349
0
LINE
8
0
10
75.650375
20
266.765349
11
84.384760
21
252.186454
0
LINE
8
0
10
84.384760
20
252.186454
11
93.588129
21
237.894266
0
LINE
8
0
10
93.588129
20
237.894266
11
103.253579
21
223.900739
0
LINE
8
0
10
103.253579
20
223.900739
11
113.374208
21
210.217826
0
LINE
8
0
10
113.374208
20
210.217826
11
123.943114
21
196.857484
0
LINE
8
0
10
123.943114
20
196.857484
11
134.953397
21
183.831665
0
LINE
8
0
10
134.953397
20
183.831665
11
146.398153
21
171.152325
0
LINE
8
0
10
146.398153
20
171.152325
11
158.270480
21
158.831417
0
LINE
8
0
10
158.270480
20
158.831417
11
170.563478
21
146.880897
0
LINE
8
0
10
170.563478
20
146.880897
11
183.270245
21
135.312717
0
LINE
8
0
10
183.270245
20
135.312717
11
196.383878
21
124.138833
0
LINE
8
0
10
196.383878
20
124.138833
11
209.897475
21
113.371200
0
LINE
8
0
10
209.897475
20
113.371200
11
223.804135
21
103.021770
0
LINE
8
0
10
223.804135
20
103.021770
11
238.096956
21
93.102500
0
LINE
8
0
10
238.096956
20
93.102500
11
252.769036
21
83.625342
0
LINE
8
0
10
252.769036
20
83.625342
11
267.813473
21
74.602251
0
LINE
8
0
10
267.813473
20
74.602251
11
283.149918
21
66.084932
0
LINE
8
0
10
283.149918
20
66.084932
11
298.693417
21
58.117117
0
LINE
8
0
10
298.693417
20
58.117117
11
314.430168
21
50.698806
0
LINE
8
0
10
314.430168
20
50.698806
11
330.346367
21
43.830000
0
LINE
8
0
10
330.346367
20
43.830000
11
346.428210
21
37.510698
0
LINE
8
0
10
346.428210
20
37.510698
11
362.661893
21
31.740901
0
LINE
8
0
10
362.661893
20
31.740901
11
379.033614
21
26.520608
0
LINE
8
0
10
379.033614
20
26.520608
11
395.529567
21
21.849820
0
LINE
8
0
10
395.529567
20
21.849820
11
412.135950
21
17.728536
0
LINE
8
0
10
412.135950
20
17.728536
11
428.838959
21
14.156757
0
LINE
8
0
10
428.838959
20
14.156757
11
445.624790
21
11.134482
0
LINE
8
0
10
445.624790
20
11.134482
11
462.479639
21
8.661712
0
LINE
8
0
10
462.479639
20
8.661712
11
479.389703
21
6.738446
0
LINE
8
0
10
479.389703
20
6.738446
11
496.341178
21
5.364685
0
LINE
8
0
10
496.341178
20
5.364685
11
513.320261
21
4.540428
0
LINE
8
0
10
513.320261
20
4.540428
11
530.313147
21
4.265676
0
LINE
8
0
10
530.313147
20
4.265676
11
547.306033
21
4.540428
0
LINE
8
0
10
547.306033
20
4.540428
11
564.285115
21
5.364685
0
LINE
8
0
10
564.285115
20
5.364685
11
581.236590
21
6.738446
0
LINE
8
0
10
581.236590
20
6.738446
11
598.146654
21
8.661712
0
LINE
8
0
10
598.146654
20
8.661712
11
615.001504
21
11.134482
0
LINE
8
0
10
615.001504
20
11.134482
11
631.787335
21
14.156757
0
LINE
8
0
10
631.787335
20
14.156757
11
648.490343
21
17.728536
0
LINE
8
0
10
648.490343
20
17.728536
11
665.096726
21
21.849820
0
LINE
8
0
10
665.096726
20
21.849820
11
681.592680
21
26.520608
0
LINE
8
0
10
681.592680
20
26.520608
11
697.964400
21
31.740901
0
LINE
8
0
10
697.964400
20
31.740901
11
714.198084
21
37.510698
0
LINE
8
0
10
714.198084
20
37.510698
11
730.279927
21
43.830000
0
LINE
8
0
10
730.279927
20
43.830000
11
746.196126
21
50.698806
0
LINE
8
0
10
746.196126
20
50.698806
11
761.932877
21
58.117117
0
LINE
8
0
10
761.932877
20
58.117117
11
777.476376
21
66.084932
0
LINE
8
0
10
777.476376
20
66.084932
11
792.812820
21
74.602251
0
LINE
8
0
10
792.812820
20
74.602251
11
807.857258
21
83.625342
0
LINE
8
0
10
807.857258
20
83.625342
11
822.529338
21
93.102500
0
LINE
8
0
10
822.529338
20
93.102500
11
836.822159
21
103.021770
0
LINE
8
0
10
836.822159
20
103.021770
11
850.728819
21
113.371200
0
LINE
8
0
10
850.728819
20
113.371200
11
864.242416
21
124.138833
0
LINE
8
0
10
864.242416
20
124.138833
11
877.356049
21
135.312717
0
LINE
8
0
10
877.356049
20
135.312717
11
890.062815
21
146.880897
0
LINE
8
0
10
890.062815
20
146.880897
11
902.355813
21
158.831417
0
LINE
8
0
10
902.355813
20
158.831417
11
914.228141
21
171.152325
0
LINE
8
0
10
914.228141
20
171.152325
11
925.672897
21
183.831665
0
LINE
8
0
10
925.672897
20
183.831665
11
936.683179
21
196.857484
0
LINE
8
0
10
936.683179
20
196.857484
11
947.252086
21
210.217826
0
LINE
8
0
10
947.252086
20
210.217826
11
957.372715
21
223.900739
0
LINE
8
0
10
957.372715
20
223.900739
11
967.038164
21
237.894266
0
LINE
8
0
10
967.038164
20
237.894266
11
976.241533
21
252.186454
0
LINE
8
0
10
976.241533
20
252.186454
11
984.975918
21
266.765349
0
LINE
8
0
10
984.975918
20
266.765349
11
993.234419
21
281.618997
0
LINE
8
0
10
993.234419
20
281.618997
11
1001.010133
21
296.735442
0
LINE
8
0
10
1001.010133
20
296.735442
11
1008.296158
21
312.102730
0
LINE
8
0
10
1008.296158
20
312.102730
11
1015.085593
21
327.708908
0
LINE
8
0
10
1015.085593
20
327.708908
11
1021.371536
21
343.542021
0
LINE
8
0
10
1021.371536
20
343.542021
11
1027.147085
21
359.590114
0
LINE
8
0
10
1027.147085
20
359.590114
11
1032.405338
21
375.841234
0
LINE
8
0
10
1032.405338
20
375.841234
11
1037.139393
21
392.283425
0
LINE
8
0
10
1037.139393
20
392.283425
11
1041.342348
21
408.904734
0
LINE
8
0
10
1041.342348
20
408.904734
11
1045.007302
21
425.693206
0
LINE
8
0
10
1045.007302
20
425.693206
11
1048.127353
21
442.636887
0
LINE
8
0
10
1048.127353
20
442.636887
11
1050.695599
21
459.723823
0
LINE
8
0
10
1050.695599
20
459.723823
11
1052.705138
21
476.942058
0
LINE
8
0
10
1052.705138
20
476.942058
11
1054.149068
21
494.279640
0
LINE
8
0
10
1054.149068
20
494.279640
11
1055.020487
21
511.724613
0
LINE
8
0
10
1055.020487
20
511.724613
11
1055.312494
21
529.265023
0
LINE
8
0
10
1055.312494
20
529.265023
11
1055.312499
21
529.265023
0
LINE
8
0
10
1030.312528
20
529.265023
11
1030.034425
21
545.970175
0
LINE
8
0
10
1030.034425
20
545.970175
11
1029.204501
21
562.584435
0
LINE
8
0
10
1029.204501
20
562.584435
11
1027.829329
21
579.096417
0
LINE
8
0
10
1027.829329
20
579.096417
11
1025.915482
21
595.494737
0
LINE
8
0
10
1025.915482
20
595.494737
11
1023.469533
21
611.768009
0
LINE
8
0
10
1023.469533
20
611.768009
11
1020.498055
21
627.904848
0
LINE
8
0
10
1020.498055
20
627.904848
11
1017.007622
21
643.893869
0
LINE
8
0
10
1017.007622
20
643.893869
11
1013.004807
21
659.723687
0
LINE
8
0
10
1013.004807
20
659.723687
11
1008.496182
21
675.382916
0
LINE
8
0
10
1008.496182
20
675.382916
11
1003.488322
21
690.860173
0
LINE
8
0
10
1003.488322
20
690.860173
11
997.987799
21
706.144071
0
LINE
8
0
10
997.987799
20
706.144071
11
992.001186
21
721.223226
0
LINE
8
0
10
992.001186
20
721.223226
11
985.535057
21
736.086253
0
LINE
8
0
10
985.535057
20
736.086253
11
978.595985
21
750.721766
0
LINE
8
0
10
978.595985
20
750.721766
11
971.190543
21
765.118380
0
LINE
8
0
10
971.190543
20
765.118380
11
963.325304
21
779.264711
0
LINE
8
0
10
963.325304
20
779.264711
11
955.006842
21
793.149372
0
LINE
8
0
10
955.006842
20
793.149372
11
946.241729
21
806.760980
0
LINE
8
0
10
946.241729
20
806.760980
11
937.036538
21
820.088149
0
LINE
8
0
10
937.036538
20
820.088149
11
927.397844
21
833.119494
0
LINE
8
0
10
927.397844
20
833.119494
11
917.332219
21
845.843630
0
LINE
8
0
10
917.332219
20
845.843630
11
906.846236
21
858.249171
0
LINE
8
0
10
906.846236
20
858.249171
11
895.946468
21
870.324733
0
LINE
8
0
10
895.946468
20
870.324733
11
884.639489
21
882.058931
0
LINE
8
0
10
884.639489
20
882.058931
11
872.931872
21
893.440379
0
LINE
8
0
10
872.931872
20
893.440379
11
860.830190
21
904.457693
0
LINE
8
0
10
860.830190
20
904.457693
11
848.341016
21
915.099487
0
LINE
8
0
10
848.341016
20
915.099487
11
835.470923
21
925.354376
0
LINE
8
0
10
835.470923
20
925.354376
11
822.226485
21
935.210976
0
LINE
8
0
10
822.226485
20
935.210976
11
808.614275
21
944.657900
0
LINE
8
0
10
808.614275
20
944.657900
11
794.640865
21
953.683764
0
LINE
8
0
10
794.640865
20
953.683764
11
780.312830
21
962.277184
0
LINE
8
0
10
780.312830
20
962.277184
11
765.706692
21
970.388917
0
LINE
8
0
10
765.706692
20
970.388917
11
750.903360
21
977.977312
0
LINE
8
0
10
750.903360
20
977.977312
11
735.915978
21
985.042370
0
LINE
8
0
10
735.915978
20
985.042370
11
720.757693
21
991.584090
0
LINE
8
0
10
720.757693
20
991.584090
11
705.441653
21
997.602473
0
LINE
8
0
10
705.441653
20
997.602473
11
689.981002
21
1003.097518
0
LINE
8
0
10
689.981002
20
1003.097518
11
674.388887
21
1008.069225
0
LINE
8
0
10
674.388887
20
1008.069225
11
658.678455
21
1012.517595
0
LINE
8
0
10
658.678455
20
1012.517595
11
642.862852
21
1016.442627
0
LINE
8
0
10
642.862852
20
1016.442627
11
626.955225
21
1019.844321
0
LINE
8
0
10
626.955225
20
1019.844321
11
610.968720
21
1022.722678
0
LINE
8
0
10
610.968720
20
1022.722678
11
594.916482
21
1025.077697
0
LINE
8
0
10
594.916482
20
1025.077697
11
578.811659
21
1026.909379
0
LINE
8
0
10
578.811659
20
1026.909379
11
562.667398
21
1028.217723
0
LINE
8
0
10
562.667398
20
1028.217723
11
546.496843
21
1029.002729
0
LINE
8
0
10
546.496843
20
1029.002729
11
530.313142
21
1029.264398
0
LINE
8
0
10
530.313142
20
1029.264398
11
514.129441
21
1029.002729
0
LINE
8
0
10
514.129441
20
1029.002729
11
497.958886
21
1028.217723
0
LINE
8
0
10
497.958886
20
1028.217723
11
481.814624
21
1026.909379
0
LINE
8
0
10
481.814624
20
1026.909379
11
465.709802
21
1025.077697
0
LINE
8
0
10
465.709802
20
1025.077697
11
449.657564
21
1022.722678
0
LINE
8
0
10
449.657564
20
1022.722678
11
433.671059
21
1019.844321
0
LINE
8
0
10
433.671059
20
1019.844321
11
417.763431
21
1016.442627
0
LINE
8
0
10
417.763431
20
1016.442627
11
401.947829
21
1012.517595
0
LINE
8
0
10
401.947829
20
1012.517595
11
386.237397
21
1008.069225
0
LINE
8
0
10
386.237397
20
1008.069225
11
370.645282
21
1003.097518
0
LINE
8
0
10
370.645282
20
1003.097518
11
355.184631
21
997.602473
0
LINE
8
0
10
355.184631
20
997.602473
11
339.868590
21
991.584090
0
LINE
8
0
10
339.868590
20
991.584090
11
324.710306
21
985.042370
0
LINE
8
0
10
324.710306
20
985.042370
11
309.722924
21
977.977312
0
LINE
8
0
10
309.722924
20
977.977312
11
294.919591
21
970.388917
0
LINE
8
0
10
294.919591
20
970.388917
11
280.313454
21
962.277184
0
LINE
8
0
10
280.313454
20
962.277184
11
265.985419
21
953.683764
0
LINE
8
0
10
265.985419
20
953.683764
11
252.012009
21
944.657900
0
LINE
8
0
10
252.012009
20
944.657900
11
238.399799
21
935.210976
0
LINE
8
0
10
238.399799
20
935.210976
11
225.155361
21
925.354376
0
LINE
8
0
10
225.155361
20
925.354376
11
212.285268
21
915.099487
0
LINE
8
0
10
212.285268
20
915.099487
11
199.796094
21
904.457693
0
LINE
8
0
10
199.796094
20
904.457693
11
187.694412
21
893.440379
0
LINE
8
0
10
187.694412
20
893.440379
11
175.986795
21
882.058931
0
LINE
8
0
10
175.986795
20
882.058931
11
164.679816
21
870.324733
0
LINE
8
0
10
164.679816
20
870.324733
11
153.780048
21
858.249171
0
LINE
8
0
10
153.780048
20
858.249171
11
143.294066
21
845.843630
0
LINE
8
0
10
143.294066
20
845.843630
11
133.228440
21
833.119494
0
LINE
8
0
10
133.228440
20
833.119494
11
123.589746
21
820.088149
0
LINE
8
0
10
123.589746
20
820.088149
11
114.384556
21
806.760980
0
LINE
8
0
10
114.384556
20
806.760980
11
105.619443
21
793.149372
0
LINE
8
0
10
105.619443
20
793.149372
11
97.300981
21
779.264711
0
LINE
8
0
10
97.300981
20
779.264711
11
89.435742
21
765.118380
0
LINE
8
0
10
89.435742
20
765.118380
11
82.030300
21
750.721766
0
LINE
8
0
10
82.030300
20
750.721766
11
75.091229
21
736.086253
0
LINE
8
0
10
75.091229
20
736.086253
11
68.625100
21
721.223226
0
LINE
8
0
10
68.625100
20
721.223226
11
62.638488
21
706.144071
0
LINE
8
0
10
62.638488
20
706.144071
11
57.137965
21
690.860173
0
LINE
8
0
10
57.137965
20
690.860173
11
52.130105
21
675.382916
0
LINE
8
0
10
52.130105
20
675.382916
11
47.621482
21
659.723687
0
LINE
8
0
10
47.621482
20
659.723687
11
43.618667
21
643.893869
0
LINE
8
0
10
43.618667
20
643.893869
11
40.128234
21
627.904848
0
LINE
8
0
10
40.128234
20
627.904848
11
37.156757
21
611.768009
0
LINE
8
0
10
37.156757
20
611.768009
11
34.710809
21
595.494737
0
LINE
8
0
10
34.710809
20
595.494737
11
32.796963
21
579.096417
0
LINE
8
0
10
32.796963
20
579.096417
11
31.421791
21
562.584435
0
LINE
8
0
10
31.421791
20
562.584435
11
30.591868
21
545.970175
0
LINE
8
0
10
30.591868
20
545.970175
11
30.313766
21
529.265023
0
LINE
8
0
10
30.313766
20
529.265023
11
30.591869
21
512.559870
0
LINE
8
0
10
30.591869
20
512.559870
11
31.421792
21
495.945611
0
LINE
8
0
10
31.421792
20
495.945611
11
32.796964
21
479.433628
0
LINE
8
0
10
32.796964
20
479.433628
11
34.710811
21
463.035309
0
LINE
8
0
10
34.710811
20
463.035309
11
37.156760
21
446.762037
0
LINE
8
0
10
37.156760
20
446.762037
11
40.128237
21
430.625198
0
LINE
8
0
10
40.128237
20
430.625198
11
43.618670
21
414.636177
0
LINE
8
0
10
43.618670
20
414.636177
11
47.621485
21
398.806359
0
LINE
8
0
10
47.621485
20
398.806359
11
52.130109
21
383.147129
0
LINE
8
0
10
52.130109
20
383.147129
11
57.137969
21
367.669873
0
LINE
8
0
10
57.137969
20
367.669873
11
62.638492
21
352.385974
0
LINE
8
0
10
62.638492
20
352.385974
11
68.625104
21
337.306819
0
LINE
8
0
10
68.625104
20
337.306819
11
75.091233
21
322.443793
0
LINE
8
0
10
75.091233
20
322.443793
11
82.030305
21
307.808280
0
LINE
8
0
10
82.030305
20
307.808280
11
89.435747
21
293.411666
0
LINE
8
0
10
89.435747
20
293.411666
11
97.300986
21
279.265335
0
LINE
8
0
10
97.300986
20
279.265335
11
105.619448
21
265.380673
0
LINE
8
0
10
105.619448
20
265.380673
11
114.384561
21
251.769065
0
LINE
8
0
10
114.384561
20
251.769065
11
123.589751
21
238.441896
0
LINE
8
0
10
123.589751
20
238.441896
11
133.228445
21
225.410552
0
LINE
8
0
10
133.228445
20
225.410552
11
143.294071
21
212.686416
0
LINE
8
0
10
143.294071
20
212.686416
11
153.780054
21
200.280874
0
LINE
8
0
10
153.780054
20
200.280874
11
164.679821
21
188.205312
0
LINE
8
0
10
164.679821
20
188.205312
11
175.986800
21
176.471115
0
LINE
8
0
10
175.986800
20
176.471115
11
187.694417
21
165.089666
0
LINE
8
0
10
187.694417
20
165.089666
11
199.796099
21
154.072353
0
LINE
8
0
10
199.796099
20
154.072353
11
212.285273
21
143.430559
0
LINE
8
0
10
212.285273
20
143.430559
11
225.155366
21
133.175669
0
LINE
8
0
10
225.155366
20
133.175669
11
238.399804
21
123.319070
0
LINE
8
0
10
238.399804
20
123.319070
11
252.012014
21
113.872146
0
LINE
8
0
10
252.012014
20
113.872146
11
265.985424
21
104.846281
0
LINE
8
0
10
265.985424
20
104.846281
11
280.313459
21
96.252862
0
LINE
8
0
10
280.313459
20
96.252862
11
294.919597
21
88.141129
0
LINE
8
0
10
294.919597
20
88.141129
11
309.722929
21
80.552733
0
LINE
8
0
10
309.722929
20
80.552733
11
324.710311
21
73.487676
0
LINE
8
0
10
324.710311
20
73.487676
11
339.868596
21
66.945955
0
LINE
8
0
10
339.868596
20
66.945955
11
355.184637
21
60.927573
0
LINE
8
0
10
355.184637
20
60.927573
11
370.645288
21
55.432528
0
LINE
8
0
10
370.645288
20
55.432528
11
386.237402
21
50.460821
0
LINE
8
0
10
386.237402
20
50.460821
11
401.947834
21
46.012451
0
LINE
8
0
10
401.947834
20
46.012451
11
417.763437
21
42.087419
0
LINE
8
0
10
417.763437
20
42.087419
11
433.671064
21
38.685724
0
LINE
8
0
10
433.671064
20
38.685724
11
449.657570
21
35.807367
0
LINE
8
0
10
449.657570
20
35.807367
11
465.709807
21
33.452348
0
LINE
8
0
10
465.709807
20
33.452348
11
481.814630
21
31.620667
0
LINE
8
0
10
481.814630
20
31.620667
11
497.958892
21
30.312323
0
LINE
8
0
10
497.958892
20
30.312323
11
514.129446
21
29.527316
0
LINE
8
0
10
514.129446
20
29.527316
11
530.313147
21
29.265647
0
LINE
8
0
10
530.313147
20
29.265647
11
546.496848
21
29.527316
0
LINE
8
0
10
546.496848
20
29.527316
11
562.667403
21
30.312323
0
LINE
8
0
10
562.667403
20
30.312323
11
578.811665
21
31.620667
0
LINE
8
0
10
578.811665
20
31.620667
11
594.916488
21
33.452348
0
LINE
8
0
10
594.916488
20
33.452348
11
610.968725
21
35.807367
0
LINE
8
0
10
610.968725
20
35.807367
11
626.955230
21
38.685724
0
LINE
8
0
10
626.955230
20
38.685724
11
642.862858
21
42.087419
0
LINE
8
0
10
642.862858
20
42.087419
11
658.678460
21
46.012451
0
LINE
8
0
10
658.678460
20
46.012451
11
674.388892
21
50.460821
0
LINE
8
0
10
674.388892
20
50.460821
11
689.981007
21
55.432528
0
LINE
8
0
10
689.981007
20
55.432528
11
705.441658
21
60.927573
0
LINE
8
0
10
705.441658
20
60.927573
11
720.757699
21
66.945955
0
LINE
8
0
10
720.757699
20
66.945955
11
735.915983
21
73.487676
0
LINE
8
0
10
735.915983
20
73.487676
11
750.903365
21
80.552733
0
LINE
8
0
10
750.903365
20
80.552733
11
765.706698
21
88.141129
0
LINE
8
0
10
765.706698
20
88.141129
11
780.312835
21
96.252862
0
LINE
8
0
10
780.312835
20
96.252862
11
794.640870
21
104.846281
0
LINE
8
0
10
794.640870
20
104.846281
11
808.614280
21
113.872146
0
LINE
8
0
10
808.614280
20
113.872146
11
822.226490
21
123.319070
0
LINE
8
0
10
822.226490
20
123.319070
11
835.470928
21
133.175669
0
LINE
8
0
10
835.470928
20
133.175669
11
848.341021
21
143.430559
0
LINE
8
0
10
848.341021
20
143.430559
11
860.830195
21
154.072353
0
LINE
8
0
10
860.830195
20
154.072353
11
872.931877
21
165.089666
0
LINE
8
0
10
872.931877
20
165.089666
11
884.639494
21
176.471115
0
LINE
8
0
10
884.639494
20
176.471115
11
895.946473
21
188.205312
0
LINE
8
0
10
895.946473
20
188.205312
11
906.846241
21
200.280874
0
LINE
8
0
10
906.846241
20
200.280874
11
917.332224
21
212.686416
0
LINE
8
0
10
917.332224
20
212.686416
11
927.397849
21
225.410552
0
LINE
8
0
10
927.397849
20
225.410552
11
937.036543
21
238.441896
0
LINE
8
0
10
937.036543
20
238.441896
11
946.241733
21
251.769065
0
LINE
8
0
10
946.241733
20
251.769065
11
955.006846
21
265.380673
0
LINE
8
0
10
955.006846
20
265.380673
11
963.325308
21
279.265335
0
LINE
8
0
10
963.325308
20
279.265335
11
971.190547
21
293.411666
0
LINE
8
0
10
971.190547
20
293.411666
11
978.595989
21
307.808280
0
LINE
8
0
10
978.595989
20
307.808280
11
985.535061
21
322.443793
0
LINE
8
0
10
985.535061
20
322.443793
11
992.001189
21
337.306819
0
LINE
8
0
10
992.001189
20
337.306819
11
997.987801
21
352.385974
0
LINE
8
0
10
997.987801
20
352.385974
11
1003.488324
21
367.669873
0
LINE
8
0
10
1003.488324
20
367.669873
11
1008.496184
21
383.147129
0
LINE
8
0
10
1008.496184
20
383.147129
11
1013.004808
21
398.806359
0
LINE
8
0
10
1013.004808
20
398.806359
11
1017.007622
21
414.636177
0
LINE
8
0
10
1017.007622
20
414.636177
11
1020.498055
21
430.625198
0
LINE
8
0
10
1020.498055
20
430.625198
11
1023.469532
21
446.762037
0
LINE
8
0
10
1023.469532
20
446.762037
11
1025.915480
21
463.035309
0
LINE
8
0
10
1025.915480
20
463.035309
11
1027.829326
21
479.433628
0
LINE
8
0
10
1027.829326
20
479.433628
11
1029.204498
21
495.945611
0
LINE
8
0
10
1029.204498
20
495.945611
11
1030.034421
21
512.559870
0
LINE
8
0
10
1030.034421
20
512.559870
11
1030.312523
21
529.265023
0
LINE
8
0
10
1030.312523
20
529.265023
11
1030.312528
21
529.265023
 0 
ENDSEC
 0 
EOF